<svg width="234" height="370" viewBox="0 0 234 370" fill="none" xmlns="http://www.w3.org/2000/svg">
<path d="M59.8069 307L70.8069 107H137.807L156.807 307H59.8069Z" fill="#DCE1E7"/>
<rect x="70.8069" y="72" width="67" height="35" fill="#FAC76C"/>
<rect x="77.8069" y="72" width="53" height="35" fill="#F3DFAC"/>
<mask id="mask0" mask-type="alpha" maskUnits="userSpaceOnUse" x="59" y="107" width="98" height="200">
<path d="M59.8069 307L70.8069 107H137.807L156.807 307H59.8069Z" fill="#74FF51"/>
</mask>
<g mask="url(#mask0)">
<line x1="67.6554" y1="137.122" x2="145.655" y2="160.122" stroke="#E42223" stroke-width="6"/>
<line x1="65.631" y1="180.115" x2="149.631" y2="204.115" stroke="#E42223" stroke-width="6"/>
<line x1="62.6228" y1="227.113" x2="154.623" y2="253.113" stroke="#E42223" stroke-width="6"/>
</g>
<mask id="mask1" mask-type="alpha" maskUnits="userSpaceOnUse" x="59" y="107" width="98" height="200">
<path d="M59.8069 307L70.8069 107H137.807L156.807 307H59.8069Z" fill="#DCE1E7"/>
<path d="M59.8069 307L70.8069 107H137.807L156.807 307H59.8069Z" fill="url(#paint0_linear)"/>
</mask>
<g mask="url(#mask1)">
<path d="M50.8069 308.45L139.807 107H150.896L160.807 307L50.8069 308.45Z" fill="black" fill-opacity="0.1"/>
</g>
<rect x="65.8069" y="107" width="77" height="8" fill="#E42223"/>
<line x1="103" y1="4.37114e-08" x2="103" y2="51" stroke="#DCE1E7" stroke-width="2"/>
<path d="M140 5.24999L104.66 10.4461L104.66 0.053833L140 5.24999Z" fill="#E42223"/>
<path d="M140 11.25L104.66 16.4461L104.66 6.05383L140 11.25Z" fill="#E42223"/>
<path d="M233.307 356H2.27844C2.27844 356 -12.1931 255.5 31.8069 231C28.3069 262.5 40.1081 286 58.8069 286C77.5056 286 67.8069 243 111.807 227.5C101.807 260 121.307 286 134.307 286C147.307 286 155.807 235 189.807 227.5C166.307 300.5 233.307 356 233.307 356Z" fill="#17457B"/>
<mask id="mask2" mask-type="alpha" maskUnits="userSpaceOnUse" x="0" y="227" width="234" height="129">
<path d="M233.307 356H2.27868C2.27868 356 -12.1929 255.5 31.8071 231C28.3071 262.5 40.1084 286 58.8071 286C77.5059 286 67.8071 243 111.807 227.5C101.807 260 121.307 286 134.307 286C147.307 286 155.807 235 189.807 227.5C166.307 300.5 233.307 356 233.307 356Z" fill="#86FF84"/>
</mask>
<g mask="url(#mask2)">
<path d="M31.3069 327.5C30.4876 316.029 -2.19312 318 -2.19312 318V336.5C-2.19312 336.5 32.1262 338.97 31.3069 327.5Z" fill="#F0F0F0"/>
<path d="M-1.4423 267H199.935C199.935 267 206.832 311 199.935 311C193.037 311 186.216 305.5 175.667 305.5C165.119 305.5 161.763 311 149.776 311C137.789 311 121.049 299.5 110.5 299.5C99.9519 299.5 86.9654 311 74.1668 311C61.3681 311 42.1307 303 33.5002 303C24.8698 303 8.81197 311 -1.4423 311C-11.6966 311 -1.4423 267 -1.4423 267Z" fill="#184169"/>
<path d="M0.000244141 250H200L195.899 290.055C195.899 290.055 185.422 276.703 173.994 276.703C162.565 276.703 154.47 295 141.137 295C124.579 295 117.972 276.703 96.8511 276.703C81.6372 276.703 70.7078 295 60.0002 295C50.0002 295 37.8034 276.703 25.8987 276.703C13.9939 276.703 0.000244141 290.055 0.000244141 290.055V250Z" fill="#1899C1"/>
<path d="M-9.99976 223H200V268.793C200 268.793 175.694 242.121 149.694 266.194C135.042 279.76 116.472 252.752 105.194 252.058C76.1936 250.273 79.6936 263.563 61.0002 263.563C42.3069 263.563 39.6936 255.719 22.6936 255.719C5.6936 255.719 -9.99976 263.563 -9.99976 263.563V223Z" fill="#5DBFD6"/>
</g>
<circle cx="56.8069" cy="356" r="9" fill="#C4C4C4" stroke="black" stroke-width="9"/>
<circle cx="151.807" cy="356" r="9" fill="#C4C4C4" stroke="black" stroke-width="9"/>
<path d="M65.8069 62H78.3069L92.3069 29.5H114.307L130.807 62H142.807V72H65.8069V62Z" fill="#E42223"/>
<defs>
<linearGradient id="paint0_linear" x1="44.8069" y1="107" x2="156.807" y2="107" gradientUnits="userSpaceOnUse">
<stop stop-color="#8E8E8E"/>
<stop offset="1" stop-color="white" stop-opacity="0"/>
</linearGradient>
</defs>
</svg>
